<?xml version="1.0" encoding="utf-8"?>
<!-- Generator: Adobe Illustrator 26.0.1, SVG Export Plug-In . SVG Version: 6.00 Build 0)  -->
<svg version="1.1" id="Layer_1" xmlns="http://www.w3.org/2000/svg" xmlns:xlink="http://www.w3.org/1999/xlink" x="0px" y="0px"
	 viewBox="0 0 220.2 63.8" style="enable-background:new 0 0 220.2 63.8;" xml:space="preserve">
<g>
	<path d="M120.2,5.8c-3,0.3-5.7,1.7-7.7,4c-1.1,1.2-1.9,2.7-2.4,4.2c-0.3,0.9-0.5,1.9-0.5,2.9c0,0.3,0,0.6,0.1,1h0.4h0.3
		c2.4,0,5.3-1.6,7.1-3.7c1.7-2,2.7-4.6,2.8-7.3C120.3,6.5,120.3,6.1,120.2,5.8z"/>
	<path d="M131.1,44.1c-0.8,2.6-2,5.1-3.6,7.4c-2.2,3.2-4.6,6.4-8.1,6.4s-4.5-2.1-8.6-2.1c-0.2,0-0.5,0-0.7,0s-0.5,0-0.7,0
		c-4.1,0-5,2.1-8.6,2.1c-3.6,0-5.9-3.2-8.1-6.4c-1.6-2.3-2.8-4.8-3.6-7.4c0.2-0.1,7-2.8,7-10.6c0-4.1-2.2-7.8-5.7-9.9
		c2.4-3.3,6.3-5.3,10.4-5.2c3.9,0,7.1,2.4,9.2,2.4h0.1c2.1,0,5.3-2.4,9.2-2.4c4.1-0.1,8,1.8,10.4,5.2c-3.5,2.1-5.6,5.9-5.7,9.9
		C124.1,41.3,130.9,44.1,131.1,44.1z"/>
</g>
</svg>
